Coordinates
version=1
nRows=8
nColumns=34
inDegrees=yes

Units are S.I. units (second, meters, Newtons, ...)
If the header above contains a line with 'inDegrees', this indicates whether rotational values are in degrees (yes) or radians (no).

endheader
time	pelvis_tilt	pelvis_list	pelvis_rotation	pelvis_tx	pelvis_ty	pelvis_tz	hip_flexion_r	hip_adduction_r	hip_rotation_r	knee_angle_r	ankle_angle_r	subtalar_angle_r	mtp_angle_r	hip_flexion_l	hip_adduction_l	hip_rotation_l	knee_angle_l	ankle_angle_l	subtalar_angle_l	mtp_angle_l	lumbar_extension	lumbar_bending	lumbar_rotation	arm_flex_r	arm_add_r	arm_rot_r	elbow_flex_r	pro_sup_r	arm_flex_l	arm_add_l	arm_rot_l	elbow_flex_l	pro_sup_l
      4.40000000	    -13.02213679	      4.20416688	     -3.72524892	     -0.07308062	      1.22192266	     -0.08972641	     14.23834556	      0.52280959	      0.86598603	      4.74260227	      3.78993163	    -11.17800588	      0.00000000	     11.04524753	     -0.46452570	     -1.30919694	      0.00000000	     -2.23069103	     -5.00440690	      0.00000000	     -7.33351350	     -0.80817585	      1.18519216	     -3.70055106	    -10.14378971	     12.93517400	     24.73298984	     65.11260917	      0.49569163	    -11.09024599	     21.24914231	     28.66649503	     79.02081947
      4.41666670	    -13.05448650	      4.23535206	     -3.66423311	     -0.07268910	      1.22265780	     -0.08951698	     14.27946467	      0.47586233	      0.96711310	      4.73209275	      3.86515295	    -11.19431549	      0.00000000	     11.09027567	     -0.43968743	     -1.38987869	      0.00000000	     -2.23759646	     -5.06017107	      0.00000000	     -7.18244644	     -0.79393587	      1.16940817	     -3.69412719	    -10.37133818	     12.91448504	     24.78842646	     65.12675380	      0.66168691	    -11.30246863	     21.20357897	     28.78958175	     79.04207349
      4.43333330	    -13.14530573	      4.23434139	     -3.62574407	     -0.07305791	      1.22141727	     -0.08926596	     14.36139462	      0.50074597	      1.16773681	      4.76299676	      4.11906170	    -11.26353267	      0.00000000	     11.21555569	     -0.45406271	     -1.50749009	      0.00000000	     -2.21255766	     -5.18535047	      0.00000000	     -7.00125961	     -0.76082127	      1.21182000	     -3.83989322	    -10.66308805	     12.89774155	     24.86956181	     65.15731330	      0.66731441	    -11.54939454	     21.15910748	     28.99810702	     79.08463526
      4.45000000	    -13.75227045	      4.37140206	     -3.70321056	     -0.07710997	      1.22186196	     -0.08952885	     15.41353685	      0.45568791	      1.60128682	      5.40876422	      4.66923186	    -11.52189220	      0.00000000	     12.12957833	     -0.39609197	     -1.59258268	      0.39559394	     -2.09292478	     -5.82649696	      0.00000000	     -6.29129009	     -0.91744534	      1.60080957	     -4.28262035	    -11.00917733	     12.95225005	     25.69051144	     65.40920422	      0.27502417	    -11.98594113	     21.02619832	     30.33780990	     79.40208858
      4.46666670	    -13.73140908	      4.36525735	     -3.59952504	     -0.07550794	      1.22577529	     -0.08826569	     15.38124605	      0.46480871	      1.62854724	      5.38722394	      4.72915592	    -11.53988295	      0.00000000	     12.23709488	     -0.40103222	     -1.62030332	      0.56681607	     -2.12575559	     -5.84516624	      0.00000000	     -6.34949035	     -0.99175376	      1.66324528	     -4.34478586	    -11.27372655	     12.91073877	     25.65297518	     65.41416028	      0.09464745	    -12.18545742	     20.99622702	     30.27476304	     79.41126719
      4.48333330	    -14.05553830	      4.41562775	     -3.59839114	     -0.07407133	      1.22325198	     -0.08910788	     15.93342431	      0.46461815	      1.80616505	      5.74594069	      5.18729120	    -11.72186434	      0.00000000	     13.13681038	     -0.39402905	     -1.65073221	      1.57142795	     -1.68765883	     -6.41495829	      0.00000000	     -6.04954114	     -0.91436044	      1.50647206	     -4.66441803	    -11.68296941	     12.75870187	     25.94811141	     65.62822191	     -0.62916601	    -12.62298232	     20.55231359	     30.55490121	     79.61614993
      4.50000000	    -14.03352719	      4.45301355	     -3.50309548	     -0.07434402	      1.22954482	     -0.08832535	     15.88150363	      0.41468313	      1.78850768	      5.76414003	      5.34213421	    -11.79096185	      0.00000000	     13.35898185	     -0.34889215	     -1.89572552	      1.97651395	     -1.77995083	     -6.61560081	      0.00000000	     -6.16962141	     -0.98678442	      1.59600105	     -4.96016391	    -11.95998910	     12.70446688	     25.83776523	     65.67242092	     -1.17784369	    -12.95889412	     20.41377064	     30.31694266	     79.64457919
      4.51666670	    -14.35173463	      4.53035136	     -3.49419198	     -0.07280501	      1.22597140	     -0.08749334	     16.40332406	      0.37919738	      2.01944042	      6.18290883	      5.84036924	    -11.72596801	      0.00000000	     14.06807134	     -0.32574806	     -1.88607240	      2.70634274	     -1.62848396	     -7.30365341	      0.00000000	     -5.93843468	     -1.03902961	      1.49158038	     -5.27399747	    -12.22685398	     12.59503772	     25.80912434	     65.92210781	     -2.11569201	    -13.27379289	     19.70933666	     29.71423320	     79.73281318
